<?xml version="1.0" encoding="UTF-8" standalone="no"?>
<!-- Created with Inkscape (http://www.inkscape.org/) -->

<svg
   xmlns:dc="http://purl.org/dc/elements/1.1/"
   xmlns:cc="http://creativecommons.org/ns#"
   xmlns:rdf="http://www.w3.org/1999/02/22-rdf-syntax-ns#"
   xmlns:svg="http://www.w3.org/2000/svg"
   xmlns="http://www.w3.org/2000/svg"
   xmlns:sodipodi="http://sodipodi.sourceforge.net/DTD/sodipodi-0.dtd"
   xmlns:inkscape="http://www.inkscape.org/namespaces/inkscape"
   width="372.04724"
   height="524.40942"
   id="svg2"
   version="1.1"
   inkscape:version="0.48.5 r10040"
   sodipodi:docname="single_dentro_del_viento.svg">
  <defs
     id="defs4" />
  <sodipodi:namedview
     id="base"
     pagecolor="#ffffff"
     bordercolor="#666666"
     borderopacity="1.0"
     inkscape:pageopacity="0.0"
     inkscape:pageshadow="2"
     inkscape:zoom="0.98994949"
     inkscape:cx="311.49861"
     inkscape:cy="253.61117"
     inkscape:document-units="mm"
     inkscape:current-layer="layer1"
     showgrid="false"
     showguides="true"
     inkscape:guide-bbox="true"
     units="mm"
     inkscape:window-width="1596"
     inkscape:window-height="861"
     inkscape:window-x="0"
     inkscape:window-y="18"
     inkscape:window-maximized="0">
    <sodipodi:guide
       orientation="1,0"
       position="372.04724,0"
       id="guide3168" />
    <sodipodi:guide
       orientation="1,0"
       position="41.416254,352.54324"
       id="guide3060" />
    <sodipodi:guide
       orientation="0,1"
       position="145.46197,418.20315"
       id="guide3062" />
    <sodipodi:guide
       orientation="1,0"
       position="279.81225,100.0051"
       id="guide3268" />
    <sodipodi:guide
       orientation="0,1"
       position="509.11688,302.03561"
       id="guide3270" />
    <sodipodi:guide
       orientation="0,1"
       position="489.92398,90.913728"
       id="guide3272" />
  </sodipodi:namedview>
  <metadata
     id="metadata7">
    <rdf:RDF>
      <cc:Work
         rdf:about="">
        <dc:format>image/svg+xml</dc:format>
        <dc:type
           rdf:resource="http://purl.org/dc/dcmitype/StillImage" />
        <dc:title />
      </cc:Work>
    </rdf:RDF>
  </metadata>
  <g
     inkscape:label="Capa 1"
     inkscape:groupmode="layer"
     id="layer1"
     transform="translate(0,-527.95267)">
    <g
       id="g3847"
       transform="matrix(0.10929874,0,0,0.10976979,379.02465,946.01697)"
       inkscape:export-filename="/srv/http/kiwwwi.com.ar/pastes/utopia-pirata-2.png"
       inkscape:export-xdpi="149"
       inkscape:export-ydpi="149" />
    <g
       id="g3036">
      <rect
         style="fill:#ffcc00;fill-opacity:1"
         id="rect3033"
         width="372.04724"
         height="524.40942"
         x="-7.0438722e-07"
         y="527.9527" />
      <g
         id="g3028">
        <rect
           style="fill:#ffffff"
           id="rect3035"
           width="372.04724"
           height="173.31084"
           x="2.9508121e-07"
           y="589.1864" />
        <g
           id="g3014">
          <text
             sodipodi:linespacing="125%"
             id="text3509"
             y="655.17596"
             x="41.416252"
             style="font-size:40px;font-style:normal;font-weight:normal;line-height:125%;letter-spacing:0px;word-spacing:0px;fill:#000000;fill-opacity:1;stroke:none;font-family:Sans"
             xml:space="preserve"><tspan
               style="font-size:28px;font-style:normal;font-variant:normal;font-weight:normal;font-stretch:normal;font-family:League Gothic;-inkscape-font-specification:League Gothic"
               y="655.17596"
               x="41.416252"
               id="tspan3511"
               sodipodi:role="line">Camila Pérez Schunk</tspan></text>
          <text
             sodipodi:linespacing="125%"
             id="text3047"
             y="708.03314"
             x="41.416252"
             style="font-size:40px;font-style:normal;font-weight:normal;line-height:125%;letter-spacing:0px;word-spacing:0px;fill:#000000;fill-opacity:1;stroke:none;font-family:Sans"
             xml:space="preserve"><tspan
               style="font-size:56px;font-style:normal;font-variant:normal;font-weight:normal;font-stretch:normal;font-family:League Gothic;-inkscape-font-specification:League Gothic"
               y="708.03314"
               x="41.416252"
               id="tspan3049"
               sodipodi:role="line">Dentro del Viento</tspan></text>
        </g>
      </g>
    </g>
    <g
       style="font-size:41.04612732px;font-style:normal;font-weight:normal;line-height:125%;letter-spacing:0px;word-spacing:0px;fill:#000000;fill-opacity:1;stroke:none;font-family:Sans"
       id="text3286" />
    <g
       transform="translate(-373.43051,-15.100996)"
       id="g3064">
      <path
         style="fill:#000000;stroke:#000000;stroke-width:0.15541989"
         inkscape:connector-curvature="0"
         id="path719"
         d="m 724.42726,992.48042 c -2.32629,3.27085 -4.84892,6.04234 -7.59922,9.34528 l -3.72206,4.2054 c -3.10173,2.9593 -10.85603,8.7222 -14.42301,11.0585 -2.01612,1.4018 -4.18732,2.4921 -6.35853,3.4266 l -2.83187,1.3769 c 0.46526,0.4673 1.33064,0.7229 2.11367,1.0903 0.46526,0 2.11398,-0.9096 2.57924,-1.2211 l 4.96275,-2.8036 c 0.93052,-0.623 1.86103,-1.4018 2.94664,-1.5576 -0.46526,1.0903 -1.55086,1.7133 -2.63647,2.3364 l -2.94663,1.7133 c 0,0 -3.09412,1.7709 -3.51735,2.0653 0.84816,0.3364 2.12157,0.7228 2.92942,1.0497 0.77543,0 1.82862,-0.7787 2.44896,-1.0902 1.70595,-0.9346 3.87715,-2.3364 5.5831,-3.5824 l 2.79155,-1.869 c 2.1712,-1.7133 4.34241,-3.5824 6.35853,-5.6072 1.55086,-1.4018 3.10172,-2.8036 4.3424,-4.5169 1.70595,-2.0248 2.79155,-4.3611 4.03224,-6.6974 1.39578,-2.18059 1.86103,-3.58238 2.63646,-5.9187 0.15509,-0.77877 0.62035,-2.0248 0.31018,-2.80358 z" />
      <path
         style="fill:#000000;stroke:#000000;stroke-width:0.15541989"
         inkscape:connector-curvature="0"
         id="path725"
         d="m 653.24276,991.70165 c -0.46526,1.7133 0.15509,3.73811 0.77543,5.29565 1.39577,3.7381 3.72207,7.009 6.04836,10.124 1.39577,2.0248 3.72206,4.5169 5.42801,6.2302 l 1.86103,1.5576 4.03224,3.5823 c 3.2568,2.4921 9.30516,6.2302 13.02723,7.9435 l 4.96275,2.1806 2.01612,0.7787 c 2.32629,0.9346 4.65258,1.5576 7.13396,2.0248 1.39577,0.3115 2.94663,0.7788 4.34241,0.7788 -0.46526,-1.7133 -1.39578,-1.5575 -2.79155,-2.0248 l -5.11784,-2.0248 c -7.13396,-2.9593 -15.04335,-5.9187 -20.62645,-11.5258 1.08561,0 1.86104,0.9345 2.63647,1.5575 1.0856,0.7788 2.48137,1.7133 3.72206,2.4921 3.41189,2.0248 11.1662,5.6071 15.04335,7.0089 1.55086,0.623 4.18732,1.7133 5.73818,1.7133 1.24069,0.1558 2.94664,-0.623 3.87715,-1.246 -0.62034,-0.623 -1.24069,-0.4673 -2.1712,-0.623 l -4.80767,-1.4018 c -4.18732,-1.0903 -8.21956,-2.6478 -12.09671,-4.6726 l -2.17121,-0.9346 -2.94663,-1.869 -3.56698,-2.3363 -3.72207,-2.9594 -6.35852,-4.9841 -5.89327,-6.0744 -2.94664,-3.42664 -3.10172,-3.4266 -2.32629,-3.73811 z" />
      <path
         style="fill:#000000;stroke:#000000;stroke-width:0.15541989"
         inkscape:connector-curvature="0"
         id="path731"
         d="m 703.02538,1030.173 c 0.31017,0.623 0.93052,1.5575 0.93052,2.3363 0,1.7133 -2.01612,3.2709 -3.56698,3.1151 -0.62034,-0.1557 -2.01612,-0.9345 -2.48138,0 -0.15508,0.3115 -0.15508,0.623 0,0.7788 0,0.623 0.77543,0.9345 1.39578,1.246 1.70594,0.4673 3.56698,-0.1557 4.96275,-1.0903 1.0856,-0.623 1.86103,-1.7133 2.17121,-2.9593 l 0.31017,-2.0248 c 0.15508,-0.623 0.77543,-0.7788 1.55086,-1.8691 0.93051,-1.246 1.86103,-3.4266 3.10172,-4.3611 0.46526,-0.3115 0.93052,-0.4673 1.55086,-0.623 -0.31017,-0.4673 -0.62034,-0.7788 -0.93052,-1.246 -0.31017,-0.1558 -0.62034,-0.4673 -0.93051,-0.4673 -0.46526,-0.1558 -1.08561,-0.1558 -1.55086,0.1558 -2.17121,1.0902 -1.70595,3.115 -2.94664,4.6726 -0.93052,1.246 -2.01612,1.869 -3.56698,2.3363 z" />
      <path
         style="fill:#000000;stroke:#000000;stroke-width:0.15541989"
         inkscape:connector-curvature="0"
         id="path737"
         d="m 707.98814,1032.1978 c 1.0856,0.4673 2.01611,0.3115 3.10172,0.3115 l 2.32629,0.1558 c 1.0856,0 1.39577,-0.623 1.86103,-1.5576 0.15509,-0.3115 0.31017,-0.9345 0,-1.246 -0.31017,-0.3115 -0.93052,-0.3115 -1.39577,-0.3115 l -2.63647,0.1557 c -0.46526,0 -1.24069,0 -1.70594,0.1558 -0.77543,0.4673 -1.39578,1.5575 -1.55086,2.3363 z" />
      <path
         style="fill:#000000;stroke:#000000;stroke-width:0.15541989"
         inkscape:connector-curvature="0"
         id="path743"
         d="m 716.36278,1034.3784 c -0.77543,-0.3115 -1.24069,-0.623 -1.70594,-1.2461 -0.15509,0.1558 -0.31018,0.1558 -0.46526,0.3115 -0.15509,0.7788 1.86103,2.6479 2.1712,0.9346 z" />
      <path
         style="fill:#000000;stroke:#000000;stroke-width:0.15541989"
         inkscape:connector-curvature="0"
         id="path744"
         d="m 715.27718,1029.0827 1.24069,0.7788 c -0.31017,0.623 -1.0856,1.869 -0.93052,2.6478 0.15509,1.5576 2.32629,1.5576 3.25681,0.623 1.0856,-1.246 1.0856,-3.1151 -0.46526,-4.0496 -0.93052,-0.4672 -2.01612,-0.3115 -3.10172,0 z" />
      <path
         style="fill:#000000;stroke:#000000;stroke-width:0.15541989"
         inkscape:connector-curvature="0"
         id="selection_x5F_to_x5F_path_x23_5"
         d="m 659.60129,1033.4438 0.15508,0.1558 c 1.24069,-0.3115 2.01612,-0.7788 2.17121,-2.0248 -0.93052,0.1557 -1.86103,1.0903 -2.32629,1.869 z" />
      <path
         style="fill:#000000;stroke:#000000;stroke-width:0.15541989"
         inkscape:connector-curvature="0"
         id="selection_x5F_to_x5F_path_x23_4"
         d="m 660.68689,1027.6809 c -0.46526,-0.3115 -0.93052,-0.4672 -1.55086,-0.4672 -0.46526,0 -0.93052,0 -1.39577,0.1557 -1.55087,0.623 -1.70595,3.1151 -0.46526,4.2054 0.62034,0.623 2.1712,0.9345 2.79155,0.1557 0.62034,-0.623 0.46525,-1.4017 0.15508,-2.1805 -0.15508,-0.4673 -0.46526,-1.0903 -0.15508,-1.4018 0.15508,-0.3115 0.46525,-0.3115 0.62034,-0.4673 z" />
      <path
         style="fill:#000000;stroke:#000000;stroke-width:0.15541989"
         inkscape:connector-curvature="0"
         id="selection_x5F_to_x5F_path_x23_3"
         d="m 660.5318,1028.3039 c 0.15509,0.4673 0.93052,2.3364 1.24069,2.6479 0.46526,0.3115 0.93052,0.3115 1.39578,0.3115 l 2.79155,-0.1558 h 2.01611 c 0,-0.4672 0,-0.9345 -0.15508,-1.246 -0.46526,-1.246 -2.17121,-1.8691 -3.41189,-1.8691 l -1.39578,0.1558 c -0.93052,0 -1.70595,-0.1558 -2.48138,0.1557 z" />
      <path
         style="fill:#000000;stroke:#000000;stroke-width:0.15541989"
         inkscape:connector-curvature="0"
         id="selection_x5F_to_x5F_path_x23_2"
         d="m 663.47844,1023.3198 c 2.94663,0.7788 2.94663,3.2708 4.18732,4.9841 0.46526,0.6231 1.70595,1.5576 1.86104,2.1806 0.15508,0.4673 0,0.623 0.15508,1.7133 0.31017,1.4018 1.24069,2.8036 2.48138,3.5824 1.39577,0.9345 2.63646,1.5575 4.34241,1.0902 0.93051,-0.3115 1.86103,-0.9345 1.39577,-2.0248 -0.46526,-1.0902 -2.1712,0 -3.25681,-0.3115 -1.0856,-0.4672 -2.32629,-2.0248 -2.32629,-3.2708 l 0.62035,-2.1806 c -1.70595,-0.623 -3.72207,-2.0248 -4.4975,-3.7381 -0.46526,-1.0903 -0.46526,-2.6478 -1.24069,-3.4266 -1.39577,-1.0903 -3.2568,-0.1557 -3.72206,1.4018 z" />
      <path
         style="fill:#000000;stroke:#000000;stroke-width:0.15541989"
         inkscape:connector-curvature="0"
         id="path758"
         d="m 670.92257,1026.9022 c 0.46526,0.623 0.77543,0.7787 1.39577,1.0902 2.17121,1.2461 3.56698,0.3115 5.73819,-0.1557 l 4.49749,-1.4018 c -0.59553,-0.4019 -1.92617,-1.2383 -2.48137,-1.5576 l -2.94664,0.7788 -6.20344,1.2461 z" />
      <path
         style="fill:#000000;stroke:#000000;stroke-width:0.15541989"
         inkscape:connector-curvature="0"
         id="path759"
         d="m 673.09377,1031.419 c 4.03224,0 7.75431,-1.246 11.63146,-2.1805 0,0 1.70594,-0.8109 2.27604,-0.8109 -0.53815,-0.3939 -2.73293,-1.1896 -3.07629,-1.5005 -0.46525,0.1386 -2.30147,0.7538 -2.92182,0.9096 l -3.87715,1.0903 -1.86103,0.4672 c -1.0856,0.4673 -1.86103,0.623 -2.17121,2.0248 z" />
      <g
         transform="translate(0,15)"
         id="g3059">
        <g
           id="g3054">
          <circle
             transform="matrix(0.15508606,0,0,0.15575445,630.48631,956.07817)"
             d="m 483.822,156.03101 c 0,59.52249 -48.25251,107.775 -107.775,107.775 -59.52249,0 -107.775,-48.25251 -107.775,-107.775 0,-59.522494 48.25251,-107.775006 107.775,-107.775006 59.52249,0 107.775,48.252512 107.775,107.775006 z"
             style="fill:none;stroke:#000000;stroke-width:20;stroke-opacity:1"
             sodipodi:ry="107.775"
             sodipodi:rx="107.775"
             sodipodi:cy="156.03101"
             sodipodi:cx="376.047"
             cx="376.047"
             cy="156.03101"
             r="107.775"
             id="circle3807" />
          <g
             id="g3051">
            <path
               id="path3809"
               d="m 688.6694,969.88923 c -4.95019,0 -9.09781,3.46258 -10.17333,8.10702 h 4.99175 c 0.90074,-1.96998 2.88305,-3.33813 5.18158,-3.33813 3.14546,0 5.69817,2.56372 5.69817,5.72257 0,3.15886 -2.55271,5.72273 -5.69817,5.72273 -2.29853,0 -4.28099,-1.3683 -5.18158,-3.33828 h -4.99175 c 1.07552,4.64444 5.22314,8.10702 10.17333,8.10702 5.76657,0 10.44644,-4.7002 10.44644,-10.49147 0,-5.79126 -4.68003,-10.49146 -10.44644,-10.49146 z"
               inkscape:connector-curvature="0"
               style="fill:#000000" />
          </g>
        </g>
      </g>
    </g>
  </g>
</svg>
